<svg width="240" height="30" viewBox="0 0 240 30" fill="none" xmlns="http://www.w3.org/2000/svg">
<path d="M107.287 14.0942C106.595 12.3673 104.087 11.5208 99.63 11.5208H85.6758L84.5699 14.746H99.5287C100.213 14.746 100.525 14.9407 100.677 15.1015L100.229 16.185H86.3849C84.9245 16.185 84.0043 16.6337 83.6413 17.531L82.2653 21.2048C82.1978 21.5688 82.2062 21.8989 82.3075 22.1952C82.7887 23.5919 84.7809 24.2352 88.5882 24.2352H97.5787C101.935 24.2352 104.307 23.3464 104.822 21.5434L107.354 14.2381L107.287 14.0942ZM98.7014 20.4852C98.3807 20.7985 97.9839 20.9762 97.5533 21.027L90.2343 20.9931C89.2973 20.9931 88.9259 20.8323 88.7823 20.7053L89.2635 19.4864H99.1404L98.7014 20.4852ZM69.8221 13.1461L68.387 16.5659H74.6508L72.9793 20.4514C72.7514 20.8492 72.0423 21.0693 70.9448 21.0863L60.1816 21.0524C59.2445 21.0185 58.9406 20.8916 58.8478 20.8492C58.8393 20.8238 58.8393 20.8069 58.8393 20.7984L63.0771 10.0817C63.9128 9.39608 65.044 9.0998 66.4369 9.16752H83.0082L84.9835 5.87463H66.0908C65.3648 5.87463 64.6304 5.90003 63.896 5.94235C63.17 5.99314 62.4608 6.0524 61.7349 6.15398C59.2699 6.74653 57.5055 7.83852 56.4756 9.40454L52.3982 20.3413C52.2801 20.9424 52.432 21.5688 52.8457 22.1867C53.7996 23.6427 56.2224 24.3453 60.2491 24.3453H70.7254C76.2969 24.3453 79.2431 23.1687 79.7496 20.7561L81.6322 15.4232L82.3666 13.1461H69.8221ZM136.073 14.0942C135.381 12.3673 132.882 11.5208 128.417 11.5208H110.267L106.679 21.1286L105.438 24.2183H111.845L115.256 15.2285L115.45 14.746H119.62L116.134 24.2183H121.942L124.854 15.7618L125.133 14.7544H128.324C129.016 14.7544 129.337 14.9576 129.48 15.1184L126.163 24.2183H132.756L133.617 21.5603L136.149 14.255L136.073 14.0942ZM215.781 11.5631H200.847C197.479 11.4785 195.554 12.3927 195.166 14.1788L192.574 21.1371L191.333 24.2268H197.74L201.126 15.3047C201.472 14.9407 202.13 14.7544 203.093 14.7544H214.472L215.781 11.5631ZM233.846 11.5293L230.343 20.536C230.132 20.8323 229.785 20.9847 229.296 20.9931H222.019C221.082 20.9931 220.711 20.8238 220.559 20.6969L222.644 15.2369L224.29 11.5123H217.663L214.058 21.2217C213.991 21.5857 213.999 21.9158 214.101 22.2121C214.582 23.6088 216.574 24.2522 220.381 24.2522H229.372C233.728 24.2522 236.1 23.3633 236.615 21.5603L239.097 14.4074L240 11.5123H233.846V11.5293ZM182.858 24.3538H189.569L191.207 19.9604H184.495L182.858 24.3538ZM182.587 17.1246C182.115 16.4982 181.245 16.1935 179.92 16.1935H167.764L168.135 15.3047C168.481 14.9322 169.14 14.746 170.111 14.746H184.504L185.424 11.5208H167.848C164.404 11.4954 162.606 12.2826 162.285 13.9079L161.382 16.3712C161.027 17.3363 161.036 18.1066 161.415 18.6483C161.795 19.1986 162.521 19.4779 163.577 19.4779H176.4C176.298 19.7234 176.129 20.0535 175.876 20.4852C175.674 20.79 175.328 20.9677 174.846 21.0101L159.997 20.9762L158.25 24.2014L174.88 24.2352C179.236 24.2352 181.608 23.3464 182.132 21.518L182.807 19.1478C183.043 18.3267 182.976 17.641 182.587 17.1246ZM141.679 20.7053L142.126 19.5541H155.709C157.591 19.5541 158.815 18.9108 159.364 17.5817L160.208 14.4243C160.478 13.5524 160.436 12.8498 160.065 12.3419C159.668 11.7917 158.95 11.5293 157.878 11.5293H143.46C140.016 11.4869 138.217 12.2911 137.897 13.9164L135.178 21.2217C135.111 21.5857 135.119 21.9158 135.221 22.2121C135.702 23.6088 137.694 24.2522 141.501 24.2522H156.941L158.115 20.9931H143.139C142.202 20.9931 141.831 20.8323 141.679 20.7053ZM143.705 15.3554C144.034 14.9576 144.709 14.7544 145.722 14.7544H153.193C153.354 14.746 153.497 14.7375 153.615 14.7375C154.037 14.7375 154.189 14.8052 154.215 14.7883C154.206 14.8306 154.172 14.9407 154.012 15.1608L153.877 15.3978L153.902 15.4655L153.598 16.2019H143.257L143.705 15.3554Z" fill="#FC6A2C"/>
<path d="M27.993 8.67664C27.3936 7.47461 26.4059 6.50113 24.8189 6.21332C24.3039 6.1202 23.7468 6.05248 23.1558 6.00169C22.5649 5.9509 21.9402 5.90858 21.2649 5.88318H3.80725L0 17.0485H4.60078L0 30L13.5491 14.5937H7.68203L9.60676 9.17607H19.5174C20.0239 9.23533 20.4713 9.33691 20.8512 9.48928C21.3577 9.69244 21.6194 10.2511 21.4253 10.7675L17.8628 20.4599C17.618 20.8832 16.8836 21.1117 15.7355 21.1287H8.96519L5.99367 24.3538H15.6089C21.1804 24.3538 24.1266 23.1772 24.6331 20.7562L28.0521 10.8691C28.28 10.2173 28.28 9.50621 28.0521 8.8544L27.993 8.67664ZM54.8885 0L37.4562 18.0897L34.9574 5.88318H28.4066L32.5431 24.3538H38.3679L62.1147 0H54.8885Z" fill="#37C4CD"/>
</svg>
